<svg xmlns="http://www.w3.org/2000/svg" xmlns:xlink="http://www.w3.org/1999/xlink" width="500" zoomAndPan="magnify" viewBox="0 0 375 374.999991" height="500" preserveAspectRatio="xMidYMid meet" version="1.0"><defs><clipPath id="id1"><path d="M 61.640625 8.722656 L 313.640625 8.722656 L 313.640625 366.472656 L 61.640625 366.472656 Z M 61.640625 8.722656 " clip-rule="nonzero"/></clipPath></defs><rect x="-37.5" width="450" fill="rgb(100%, 100%, 100%)" y="-37.499999" height="449.999989" fill-opacity="1"/><rect x="-37.5" width="450" fill="rgb(100%, 100%, 100%)" y="-37.499999" height="449.999989" fill-opacity="1"/><rect x="-37.5" width="450" fill="rgb(100%, 100%, 100%)" y="-37.499999" height="449.999989" fill-opacity="1"/><rect x="-37.5" width="450" fill="rgb(100%, 100%, 100%)" y="-37.499999" height="449.999989" fill-opacity="1"/><g clip-path="url(#id1)"><path fill="rgb(26.669312%, 39.608765%, 47.44873%)" d="M 282.078125 49.542969 L 235.097656 49.542969 C 231.632812 26.476562 211.671875 8.722656 187.636719 8.722656 C 163.605469 8.722656 143.644531 26.476562 140.179688 49.542969 L 93.207031 49.542969 C 75.851562 49.542969 61.734375 63.652344 61.734375 80.996094 L 61.734375 118.839844 C 61.734375 122.789062 64.941406 125.996094 68.894531 125.996094 L 77.003906 125.996094 L 77.003906 318.335938 C 77.003906 344.878906 98.613281 366.472656 125.171875 366.472656 L 250.109375 366.472656 C 276.671875 366.472656 298.277344 344.878906 298.277344 318.335938 L 298.277344 125.996094 L 306.390625 125.996094 C 310.34375 125.996094 313.550781 122.789062 313.550781 118.839844 L 313.550781 80.996094 C 313.550781 63.652344 299.429688 49.542969 282.078125 49.542969 Z M 187.636719 23.035156 C 203.753906 23.035156 217.257812 34.410156 220.542969 49.542969 L 154.734375 49.542969 C 158.019531 34.410156 171.523438 23.035156 187.636719 23.035156 Z M 283.960938 318.335938 C 283.960938 336.988281 268.773438 352.164062 250.109375 352.164062 L 125.171875 352.164062 C 106.507812 352.164062 91.324219 336.988281 91.324219 318.335938 L 91.324219 125.996094 L 283.960938 125.996094 Z M 299.230469 111.683594 L 76.050781 111.683594 L 76.050781 80.996094 C 76.050781 71.542969 83.75 63.851562 93.207031 63.851562 L 282.078125 63.851562 C 291.535156 63.851562 299.230469 71.542969 299.230469 80.996094 Z M 124.988281 304.277344 L 124.988281 153.882812 C 124.988281 149.933594 128.195312 146.730469 132.144531 146.730469 C 136.097656 146.730469 139.304688 149.933594 139.304688 153.882812 L 139.304688 304.277344 C 139.304688 308.226562 136.097656 311.429688 132.144531 311.429688 C 128.195312 311.429688 124.988281 308.226562 124.988281 304.277344 Z M 182.304688 304.277344 L 182.304688 153.882812 C 182.304688 149.933594 185.511719 146.730469 189.464844 146.730469 C 193.414062 146.730469 196.621094 149.933594 196.621094 153.882812 L 196.621094 304.277344 C 196.621094 308.226562 193.414062 311.429688 189.464844 311.429688 C 185.511719 311.429688 182.304688 308.226562 182.304688 304.277344 Z M 239.628906 304.277344 L 239.628906 153.882812 C 239.628906 149.933594 242.835938 146.730469 246.789062 146.730469 C 250.742188 146.730469 253.949219 149.933594 253.949219 153.882812 L 253.949219 304.277344 C 253.949219 308.226562 250.742188 311.429688 246.789062 311.429688 C 242.835938 311.429688 239.628906 308.226562 239.628906 304.277344 Z M 239.628906 304.277344 " fill-opacity="1" fill-rule="nonzero"/></g></svg>